<svg width="52" height="52" viewBox="-11 -15 74 68" fill="none" xmlns="http://www.w3.org/2000/svg">
  <rect x="-11" y="-15" width="74" height="68" fill="#0D0D0D"/>
  <g clip-path="url(#c)">
    <!-- Row 1 -->
    <rect x="9.96" y="2.44" width="3.24" height="3.24" fill="#FFF4E0"/>
    <rect x="13.2" y="2.44" width="3.24" height="3.24" fill="#FFF4E0"/>
    <rect x="35.88" y="2.44" width="3.24" height="3.24" fill="#FFF4E0"/>
    <rect x="39.12" y="2.44" width="3.24" height="3.24" fill="#FFF4E0"/>
    <!-- Row 2 -->
    <rect x="6.72" y="5.68" width="3.24" height="3.24" fill="#FFF4E0"/>
    <rect x="9.96" y="5.68" width="3.24" height="3.24" fill="#FFF4E0"/>
    <rect x="13.2" y="5.68" width="3.24" height="3.24" fill="#FFF4E0"/>
    <rect x="35.88" y="5.68" width="3.24" height="3.24" fill="#FFF4E0"/>
    <rect x="39.12" y="5.68" width="3.24" height="3.24" fill="#FFF4E0"/>
    <rect x="42.36" y="5.68" width="3.24" height="3.24" fill="#FFF4E0"/>
    <!-- Row 3 -->
    <rect x="6.72" y="8.92" width="3.24" height="3.24" fill="#FFF4E0"/>
    <rect x="9.96" y="8.92" width="3.24" height="3.24" fill="#FFF4E0"/>
    <rect x="13.2" y="8.92" width="3.24" height="3.24" fill="#FFF4E0"/>
    <rect x="16.44" y="8.92" width="3.24" height="3.24" fill="#FFF4E0"/>
    <rect x="19.68" y="8.92" width="3.24" height="3.24" fill="#FFF4E0"/>
    <rect x="22.92" y="8.92" width="3.24" height="3.24" fill="#FFF4E0"/>
    <rect x="26.16" y="8.92" width="3.24" height="3.24" fill="#FFF4E0"/>
    <rect x="29.4" y="8.92" width="3.24" height="3.24" fill="#FFF4E0"/>
    <rect x="32.64" y="8.92" width="3.24" height="3.24" fill="#FFF4E0"/>
    <rect x="35.88" y="8.92" width="3.24" height="3.24" fill="#FFF4E0"/>
    <rect x="39.12" y="8.92" width="3.24" height="3.24" fill="#FFF4E0"/>
    <rect x="42.36" y="8.92" width="3.24" height="3.24" fill="#FFF4E0"/>
    <!-- Row 4 -->
    <rect x="3.48" y="12.16" width="3.24" height="3.24" fill="#FFF4E0"/>
    <rect x="6.72" y="12.16" width="3.24" height="3.24" fill="#FFF4E0"/>
    <rect x="9.96" y="12.16" width="3.24" height="3.24" fill="#FFF4E0"/>
    <rect x="13.2" y="12.16" width="3.24" height="3.24" fill="#FFF4E0"/>
    <rect x="16.44" y="12.16" width="3.24" height="3.24" fill="#FFF4E0"/>
    <rect x="19.68" y="12.16" width="3.24" height="3.24" fill="#FFF4E0"/>
    <rect x="22.92" y="12.16" width="3.24" height="3.24" fill="#FFF4E0"/>
    <rect x="26.16" y="12.16" width="3.24" height="3.24" fill="#FFF4E0"/>
    <rect x="29.4" y="12.16" width="3.24" height="3.24" fill="#FFF4E0"/>
    <rect x="32.64" y="12.16" width="3.24" height="3.24" fill="#FFF4E0"/>
    <rect x="35.88" y="12.16" width="3.24" height="3.24" fill="#FFF4E0"/>
    <rect x="39.12" y="12.16" width="3.24" height="3.24" fill="#FFF4E0"/>
    <rect x="42.36" y="12.16" width="3.24" height="3.24" fill="#FFF4E0"/>
    <rect x="45.6" y="12.16" width="3.24" height="3.24" fill="#FFF4E0"/>
    <!-- Row 5: eyes (glasses) - base -->
    <rect x="3.48" y="15.4" width="3.24" height="3.24" fill="#FFF4E0"/>
    <rect x="6.72" y="15.4" width="3.24" height="3.24" fill="#FFF4E0"/>
    <rect x="9.96" y="15.4" width="3.24" height="3.24" fill="#FFF4E0"/>
    <rect x="13.2" y="15.4" width="3.24" height="3.24" fill="#FFF4E0"/>
    <rect x="19.68" y="15.4" width="3.24" height="3.24" fill="#FFF4E0"/>
    <rect x="22.92" y="15.4" width="3.24" height="3.24" fill="#FFF4E0"/>
    <rect x="26.16" y="15.4" width="3.24" height="3.24" fill="#FFF4E0"/>
    <rect x="29.4" y="15.4" width="3.24" height="3.24" fill="#FFF4E0"/>
    <rect x="32.64" y="15.4" width="3.24" height="3.24" fill="#FFF4E0"/>
    <rect x="39.12" y="15.4" width="3.24" height="3.24" fill="#FFF4E0"/>
    <rect x="42.36" y="15.4" width="3.24" height="3.24" fill="#FFF4E0"/>
    <rect x="45.6" y="15.4" width="3.24" height="3.24" fill="#FFF4E0"/>
    <!-- Row 5: eye sockets -->
    <rect x="3.48" y="15.4" width="3.24" height="3.24" fill="black"/>
    <rect x="9.96" y="15.4" width="3.24" height="3.24" fill="black"/>
    <rect x="13.2" y="15.4" width="3.24" height="3.24" fill="black"/>
    <rect x="16.44" y="15.4" width="3.24" height="3.24" fill="black"/>
    <rect x="19.68" y="15.4" width="3.24" height="3.24" fill="black"/>
    <rect x="22.92" y="15.4" width="3.24" height="3.24" fill="black"/>
    <rect x="26.16" y="15.4" width="3.24" height="3.24" fill="black"/>
    <rect x="32.64" y="15.4" width="3.24" height="3.24" fill="black"/>
    <rect x="35.88" y="15.4" width="3.24" height="3.24" fill="black"/>
    <rect x="39.12" y="15.4" width="3.24" height="3.24" fill="black"/>
    <rect x="42.36" y="15.4" width="3.24" height="3.24" fill="black"/>
    <rect x="45.6" y="15.4" width="3.24" height="3.24" fill="black"/>
    <!-- Row 5: pupils (center position, offset=3.24) -->
    <rect x="9.96" y="15.4" width="3.24" height="3.24" fill="#FFF4E0"/>
    <rect x="32.64" y="15.4" width="3.24" height="3.24" fill="#FFF4E0"/>
    <!-- Row 6: base -->
    <rect x="3.48" y="18.64" width="3.24" height="3.24" fill="#FFF4E0"/>
    <rect x="6.72" y="18.64" width="3.24" height="3.24" fill="#FFF4E0"/>
    <rect x="9.96" y="18.64" width="3.24" height="3.24" fill="#FFF4E0"/>
    <rect x="13.2" y="18.64" width="3.24" height="3.24" fill="#FFF4E0"/>
    <rect x="19.68" y="18.64" width="3.24" height="3.24" fill="#FFF4E0"/>
    <rect x="22.92" y="18.64" width="3.24" height="3.24" fill="#FFF4E0"/>
    <rect x="26.16" y="18.64" width="3.24" height="3.24" fill="#FFF4E0"/>
    <rect x="29.4" y="18.64" width="3.24" height="3.24" fill="#FFF4E0"/>
    <rect x="32.64" y="18.64" width="3.24" height="3.24" fill="#FFF4E0"/>
    <rect x="39.12" y="18.64" width="3.24" height="3.24" fill="#FFF4E0"/>
    <rect x="42.36" y="18.64" width="3.24" height="3.24" fill="#FFF4E0"/>
    <rect x="45.6" y="18.64" width="3.24" height="3.24" fill="#FFF4E0"/>
    <!-- Row 6: eye sockets -->
    <rect x="3.48" y="18.64" width="3.24" height="3.24" fill="#FFF4E0"/>
    <rect x="6.72" y="18.64" width="3.24" height="3.24" fill="black"/>
    <rect x="13.2" y="18.64" width="3.24" height="3.24" fill="black"/>
    <rect x="16.44" y="18.64" width="3.24" height="3.24" fill="black"/>
    <rect x="19.68" y="18.64" width="3.24" height="3.24" fill="black"/>
    <rect x="22.92" y="18.64" width="3.24" height="3.24" fill="#FFF4E0"/>
    <rect x="26.16" y="18.64" width="3.24" height="3.24" fill="#FFF4E0"/>
    <rect x="29.4" y="18.64" width="3.24" height="3.24" fill="black"/>
    <rect x="35.88" y="18.64" width="3.24" height="3.24" fill="black"/>
    <rect x="39.12" y="18.64" width="3.24" height="3.24" fill="black"/>
    <rect x="42.36" y="18.64" width="3.24" height="3.24" fill="black"/>
    <rect x="45.6" y="18.64" width="3.24" height="3.24" fill="#FFF4E0"/>
    <!-- Row 6: pupils (center position) -->
    <rect x="13.2" y="18.64" width="3.24" height="3.24" fill="#FFF4E0"/>
    <rect x="35.88" y="18.64" width="3.24" height="3.24" fill="#FFF4E0"/>
    <!-- Row 7: bottom of eyes -->
    <rect x="3.48" y="21.88" width="3.24" height="3.24" fill="#FFF4E0"/>
    <rect x="6.72" y="21.88" width="3.24" height="3.24" fill="#FFF4E0"/>
    <rect x="9.96" y="21.88" width="3.24" height="3.24" fill="black"/>
    <rect x="13.2" y="21.88" width="3.24" height="3.24" fill="black"/>
    <rect x="16.44" y="21.88" width="3.24" height="3.24" fill="black"/>
    <rect x="19.68" y="21.88" width="3.24" height="3.24" fill="#FFF4E0"/>
    <rect x="22.92" y="21.88" width="3.24" height="3.24" fill="#FFF4E0"/>
    <rect x="26.16" y="21.88" width="3.24" height="3.24" fill="#FFF4E0"/>
    <rect x="29.4" y="21.88" width="3.24" height="3.24" fill="#FFF4E0"/>
    <rect x="32.64" y="21.88" width="3.24" height="3.24" fill="black"/>
    <rect x="35.88" y="21.88" width="3.24" height="3.24" fill="black"/>
    <rect x="39.12" y="21.88" width="3.24" height="3.24" fill="black"/>
    <rect x="42.36" y="21.88" width="3.24" height="3.24" fill="#FFF4E0"/>
    <rect x="45.6" y="21.88" width="3.24" height="3.24" fill="#FFF4E0"/>
    <!-- Row 8: mouth -->
    <rect x="3.48" y="25.12" width="3.24" height="3.24" fill="#FFF4E0"/>
    <rect x="6.72" y="25.12" width="3.24" height="3.24" fill="#FFF4E0"/>
    <rect x="9.96" y="25.12" width="3.24" height="3.24" fill="#FFF4E0"/>
    <rect x="13.2" y="25.12" width="3.24" height="3.24" fill="#FFF4E0"/>
    <rect x="16.44" y="25.12" width="3.24" height="3.24" fill="#FFF4E0"/>
    <rect x="19.68" y="25.12" width="3.24" height="3.24" fill="#FFF4E0"/>
    <rect x="22.92" y="25.12" width="3.24" height="3.24" fill="#0D0D0D"/>
    <rect x="26.16" y="25.12" width="3.24" height="3.24" fill="#0D0D0D"/>
    <rect x="29.4" y="25.12" width="3.24" height="3.24" fill="#FFF4E0"/>
    <rect x="32.64" y="25.12" width="3.24" height="3.24" fill="#FFF4E0"/>
    <rect x="35.88" y="25.12" width="3.24" height="3.24" fill="#FFF4E0"/>
    <rect x="39.12" y="25.12" width="3.24" height="3.24" fill="#FFF4E0"/>
    <rect x="42.36" y="25.12" width="3.24" height="3.24" fill="#FFF4E0"/>
    <rect x="45.6" y="25.12" width="3.24" height="3.24" fill="#FFF4E0"/>
    <!-- Row 9 -->
    <rect x="6.72" y="28.36" width="3.24" height="3.24" fill="#FFF4E0"/>
    <rect x="9.96" y="28.36" width="3.24" height="3.24" fill="#FFF4E0"/>
    <rect x="13.2" y="28.36" width="3.24" height="3.24" fill="#FFF4E0"/>
    <rect x="16.44" y="28.36" width="3.24" height="3.24" fill="#FFF4E0"/>
    <rect x="19.68" y="28.36" width="3.24" height="3.24" fill="#FFF4E0"/>
    <rect x="22.92" y="28.36" width="3.24" height="3.24" fill="#FFF4E0"/>
    <rect x="26.16" y="28.36" width="3.24" height="3.24" fill="#FFF4E0"/>
    <rect x="29.4" y="28.36" width="3.24" height="3.24" fill="#FFF4E0"/>
    <rect x="32.64" y="28.36" width="3.24" height="3.24" fill="#FFF4E0"/>
    <rect x="35.88" y="28.36" width="3.24" height="3.24" fill="#FFF4E0"/>
    <rect x="39.12" y="28.36" width="3.24" height="3.24" fill="#FFF4E0"/>
    <rect x="42.36" y="28.36" width="3.24" height="3.24" fill="#FFF4E0"/>
    <!-- Row 10-11: chin -->
    <rect x="13.2" y="31.6" width="3.24" height="3.24" fill="#FFF4E0"/>
    <rect x="16.44" y="31.6" width="3.24" height="3.24" fill="#FFF4E0"/>
    <rect x="19.68" y="31.6" width="3.24" height="3.24" fill="#FFF4E0"/>
    <rect x="22.92" y="31.6" width="3.24" height="3.24" fill="#FFF4E0"/>
    <rect x="26.16" y="31.6" width="3.24" height="3.24" fill="#FFF4E0"/>
    <rect x="29.4" y="31.6" width="3.24" height="3.24" fill="#FFF4E0"/>
    <rect x="32.64" y="31.6" width="3.24" height="3.24" fill="#FFF4E0"/>
    <rect x="35.88" y="31.6" width="3.24" height="3.24" fill="#FFF4E0"/>
  </g>
  <defs>
    <clipPath id="c"><rect width="52" height="36" fill="white"/></clipPath>
  </defs>
</svg>
