<svg width="32" height="32" viewBox="0 0 32 32" fill="none" xmlns="http://www.w3.org/2000/svg">
<g clip-path="url(#clip0_4_36)">
<mask id="mask0_4_36" style="mask-type:luminance" maskUnits="userSpaceOnUse" x="-2" y="-3" width="102" height="35">
<path d="M99.7269 -2.73981H-1.06605V31.999H99.7269V-2.73981Z" fill="#fff4e0"/>
</mask>
<g mask="url(#mask0_4_36)">
<path d="M9.27075 0.00905782C8.97208 0.0573061 8.61366 0.213527 8.36093 0.40652C7.59584 0.987809 7.00308 2.22159 6.75265 3.75864C6.65845 4.33991 6.59412 5.14635 6.59412 5.76208C6.59412 6.48812 6.67913 7.41631 6.8009 8.05734C6.82847 8.19978 6.84226 8.32614 6.83076 8.33534C6.82158 8.34452 6.70901 8.43642 6.58263 8.53752C6.1507 8.88215 5.65673 9.41288 5.3167 9.89765C4.66419 10.8236 4.24145 11.8758 4.06453 13.0154C3.99561 13.4657 3.97722 14.3756 4.03236 14.8259C4.15414 15.8645 4.4666 16.7421 5.00193 17.5462L5.17654 17.8058L5.126 17.8909C4.76758 18.4928 4.46201 19.3635 4.31956 20.1999C4.20699 20.8616 4.1932 21.0384 4.1932 21.9253C4.1932 22.8191 4.20468 22.9959 4.31038 23.614C4.43673 24.3537 4.69405 25.1373 4.98125 25.6589C5.07546 25.8288 5.3052 26.1827 5.33277 26.201C5.34196 26.2056 5.31439 26.2906 5.27074 26.3895C4.9399 27.1132 4.6573 28.0758 4.54012 28.8868C4.45741 29.4429 4.44592 29.6221 4.44592 30.208C4.44592 30.9546 4.48727 31.3177 4.64351 31.9127L4.66648 32.0001H5.64983H6.63548L6.57115 31.8782C6.17367 31.143 6.13692 29.7782 6.47924 28.4159C6.63548 27.7863 6.8124 27.3245 7.14324 26.6881L7.34082 26.3021V26.0655C7.34082 25.845 7.33623 25.8196 7.265 25.6749C7.20986 25.5646 7.13635 25.4703 7.00539 25.3418C6.78252 25.1257 6.62169 24.8983 6.49303 24.6181C5.92783 23.3912 5.81755 21.5691 6.21503 20.016C6.38045 19.3681 6.65387 18.7914 6.94105 18.4768C7.13635 18.2607 7.23743 18.0194 7.23743 17.7691C7.23743 17.5094 7.14553 17.2957 6.93875 17.0729C6.34599 16.4388 5.98068 15.6668 5.84972 14.7685C5.66362 13.4887 6.00136 12.0941 6.76873 10.989C7.52003 9.90454 8.5746 9.20839 9.75323 9.02231C10.0175 8.97864 10.5114 8.98554 10.7871 9.03608C11.0881 9.08892 11.2765 9.07285 11.4695 8.98093C11.7084 8.86836 11.8279 8.72822 11.9681 8.40656C12.0921 8.11936 12.1886 7.96314 12.4482 7.63918C12.7607 7.25089 13.0617 6.98668 13.5442 6.66732C14.0956 6.3066 14.7228 6.04468 15.3477 5.91832C15.5752 5.87236 15.6809 5.86547 16.1059 5.86547C16.531 5.86547 16.6366 5.87236 16.8641 5.91832C17.7808 6.10442 18.6906 6.57772 19.4167 7.2486C19.5728 7.39334 19.9475 7.85744 20.0669 8.05043C20.1129 8.12625 20.1932 8.28709 20.2438 8.40656C20.3839 8.72822 20.5034 8.86836 20.7424 8.98093C20.9285 9.07054 21.1237 9.08893 21.4132 9.04068C21.8705 8.96257 22.222 8.96946 22.67 9.06135C24.1956 9.36923 25.5236 10.626 26.1117 12.3101C26.624 13.7874 26.4792 15.3337 25.7166 16.5146C25.5879 16.7145 25.4591 16.8753 25.273 17.0729C24.871 17.5025 24.871 18.0356 25.2708 18.4768C25.9278 19.1958 26.3392 20.965 26.2151 22.525C26.1324 23.5542 25.8682 24.4756 25.5051 24.9972C25.4409 25.089 25.3075 25.2453 25.2065 25.3418C25.0756 25.4703 25.002 25.5646 24.9468 25.6749C24.8757 25.8196 24.871 25.845 24.871 26.0655V26.3021L25.0687 26.6881C25.3995 27.3245 25.5763 27.7863 25.7326 28.4159C26.0703 29.76 26.0405 31.0971 25.6545 31.8576C25.6223 31.9218 25.5948 31.9816 25.5948 31.9885C25.5948 31.9954 26.0336 32.0001 26.5713 32.0001H27.5454L27.5707 31.9012C27.5845 31.8484 27.6074 31.768 27.6189 31.7219C27.6441 31.621 27.6948 31.3222 27.7361 31.0351C27.7751 30.7456 27.7751 29.6795 27.7361 29.3578C27.589 28.1907 27.3432 27.2648 26.9411 26.3895C26.8975 26.2906 26.8699 26.2056 26.879 26.201C26.8906 26.1941 26.9548 26.1022 27.0238 25.9988C27.5247 25.2407 27.8326 24.2872 27.9887 23.0281C28.0301 22.6812 28.0301 21.19 27.9887 20.8569C27.8785 19.9976 27.7452 19.4141 27.5247 18.8236C27.4328 18.5777 27.1892 18.0585 27.0858 17.8909L27.0353 17.8058L27.2099 17.5462C27.7452 16.7421 28.0577 15.8645 28.1795 14.8259C28.2346 14.3756 28.2162 13.4657 28.1473 13.0154C27.9681 11.8735 27.5476 10.8259 26.8952 9.89765C26.5551 9.41288 26.0612 8.88215 25.6292 8.53752C25.5029 8.43642 25.3902 8.34452 25.3811 8.33534C25.3695 8.32614 25.3833 8.19978 25.4109 8.05734C25.689 6.60758 25.6797 4.79943 25.388 3.38644C25.1352 2.15495 24.6758 1.1762 24.083 0.611007C23.6097 0.160695 23.1272 -0.0322978 22.5482 0.00445703C21.2202 0.0825676 20.1496 1.61044 19.7269 4.01825C19.658 4.40655 19.5982 4.86146 19.5982 4.98553C19.5982 5.03377 19.589 5.07282 19.5775 5.07282C19.566 5.07282 19.4764 5.02688 19.3799 4.96943C18.3553 4.36288 17.2156 4.03893 16.1059 4.03893C14.9962 4.03893 13.8566 4.36288 12.8319 4.96943C12.7354 5.02688 12.6458 5.07282 12.6343 5.07282C12.6229 5.07282 12.6137 5.03377 12.6137 4.98553C12.6137 4.85686 12.5516 4.38816 12.485 4.01825C12.1013 1.85628 11.2214 0.424907 10.0519 0.0641987C9.89109 0.0159504 9.43388 -0.0162208 9.27075 0.00905782ZM9.66134 1.87925C9.99218 2.14117 10.3598 2.89017 10.5712 3.72876C10.6102 3.8804 10.6516 4.05502 10.6631 4.11935C10.6723 4.18138 10.6975 4.32153 10.7182 4.42952C10.8078 4.9166 10.8492 5.44273 10.8538 6.08374L10.8561 6.71557L10.6975 6.94992L10.539 7.18656H10.1691C9.73716 7.18656 9.30752 7.2417 8.89626 7.35199C8.74922 7.38874 8.60677 7.42551 8.5792 7.43241C8.53555 7.44159 8.52866 7.4278 8.50338 7.23941C8.36782 6.217 8.37471 5.08431 8.52406 4.14232C8.68948 3.09235 9.07546 2.14117 9.45227 1.86086C9.54187 1.79425 9.55795 1.79654 9.66134 1.87925ZM22.7619 1.86317C22.9893 2.03089 23.2397 2.47661 23.4258 3.04639C23.8004 4.18598 23.9061 5.75061 23.7084 7.23941C23.6833 7.4278 23.6764 7.44159 23.6326 7.43241C23.605 7.42551 23.4627 7.38874 23.3155 7.35199C22.9044 7.2417 22.4746 7.18656 22.0428 7.18656H21.6729L21.5143 6.94992L21.3558 6.71557L21.358 6.08374C21.3627 5.1923 21.4454 4.49615 21.643 3.72187C21.8521 2.89017 22.222 2.14117 22.5505 1.87925C22.6538 1.79654 22.67 1.79425 22.7619 1.86317Z" fill="#fff4e0"/>
<path d="M15.7498 13.4267C15.2513 13.4749 15.1157 13.4933 14.8768 13.5415C14.4885 13.622 13.9692 13.8012 13.6085 13.9781C12.3541 14.5915 11.4902 15.6139 11.226 16.7972C11.1731 17.0315 11.1662 17.1096 11.1662 17.5049C11.1662 17.8954 11.1731 17.9805 11.2237 18.2033C11.5752 19.7495 12.9997 20.8914 14.8423 21.1004C15.2421 21.1442 16.9699 21.1442 17.3696 21.1004C18.8491 20.9328 20.122 20.131 20.6941 19.0051C20.8458 18.7042 20.9193 18.5088 20.9883 18.2033C21.0388 17.9805 21.0457 17.8954 21.0457 17.5049C21.0457 17.1096 21.0388 17.0315 20.9859 16.7972C20.6023 15.0787 18.9343 13.7254 16.8894 13.468C16.6228 13.4359 15.9244 13.4083 15.7498 13.4267ZM16.609 14.6765C17.2914 14.7501 17.9784 14.9936 18.5298 15.3613C18.8262 15.5588 19.2444 15.9723 19.4236 16.2435C19.6442 16.5789 19.7705 16.9213 19.8279 17.337C19.8532 17.5278 19.8394 17.6725 19.7705 17.9805C19.6625 18.4399 19.3272 18.9201 18.8745 19.2556C18.663 19.4095 18.2243 19.6323 17.9555 19.7197C17.4455 19.8828 17.1122 19.9126 15.9221 19.9035C15.1456 19.8966 15.0077 19.8897 14.7849 19.8484C14.0244 19.7059 13.4224 19.4026 12.9859 18.9408C12.6321 18.5686 12.4712 18.2286 12.3839 17.6794C12.3449 17.4244 12.4184 17.0017 12.5677 16.6455C12.7493 16.2113 13.218 15.6714 13.682 15.3613C14.2197 15.0029 14.9273 14.7478 15.5775 14.6789C15.8279 14.6513 16.3587 14.6513 16.609 14.6765Z" fill="#fff4e0"/>
<path d="M15.2283 16.3538C15.0537 16.4479 14.9319 16.6869 14.9687 16.8639C15.01 17.0544 15.1777 17.2474 15.4397 17.406C15.5798 17.4911 15.589 17.5025 15.5959 17.5876C15.6005 17.6381 15.5821 17.7828 15.5568 17.9115C15.5293 18.0378 15.5086 18.171 15.5086 18.2079C15.5109 18.3067 15.6028 18.4674 15.6993 18.5457C15.7843 18.6146 15.8004 18.6168 16.0393 18.6237C16.2575 18.6306 16.3035 18.626 16.3909 18.5846C16.6159 18.4743 16.6735 18.2722 16.5908 17.884C16.5219 17.56 16.5356 17.5094 16.708 17.4106C16.8894 17.305 17.0824 17.1189 17.1398 16.9924C17.2501 16.7512 17.1491 16.4779 16.9054 16.3514C16.8458 16.3216 16.7722 16.3078 16.6642 16.3078C16.4965 16.3078 16.3885 16.3469 16.191 16.4732L16.0784 16.5444L16.0071 16.5008C15.7154 16.3285 15.6625 16.3078 15.4856 16.31C15.3592 16.31 15.2903 16.3216 15.2283 16.3538Z" fill="#fff4e0"/>
<path d="M9.64988 13.6863C9.24322 13.815 8.93994 14.1136 8.7837 14.5387C8.70788 14.741 8.67113 15.0603 8.7033 15.2326C8.77912 15.6439 9.11686 16.0183 9.50054 16.1217C9.98302 16.248 10.3437 16.1653 10.6631 15.8482C10.8492 15.6668 10.9503 15.5083 11.0514 15.251C11.1249 15.0694 11.1295 15.0373 11.1295 14.7799L11.1318 14.5042L11.0353 14.3066C10.8814 13.9942 10.6034 13.7621 10.2817 13.6771C10.1002 13.6312 9.80841 13.6335 9.64988 13.6863Z" fill="#fff4e0"/>
<path d="M21.921 13.6794C21.6062 13.7644 21.326 13.9988 21.1766 14.3066L21.0801 14.5042L21.0824 14.7799C21.0824 15.0373 21.087 15.0694 21.1606 15.251C21.2616 15.5083 21.3627 15.6668 21.5488 15.8483C21.8681 16.1653 22.2289 16.248 22.7114 16.1217C22.9894 16.0481 23.2673 15.8138 23.4007 15.5405C23.5155 15.3084 23.543 15.1407 23.5063 14.8764C23.4214 14.2722 23.0674 13.8334 22.5414 13.6794C22.3875 13.6335 22.0887 13.6335 21.921 13.6794Z" fill="#fff4e0"/>
</g>
</g>
<defs>
<clipPath id="clip0_4_36">
<rect width="24.2119" height="32" fill="#fff4e0" transform="translate(4)"/>
</clipPath>
</defs>
</svg>
